<svg width="102" height="102" viewBox="0 0 102 102" fill="none" xmlns="http://www.w3.org/2000/svg">
<path d="M89.2355 17.5596C57.9751 -2.74334 41.5496 -0.942175 13.5303 17.5596C12.2802 25.5235 11.3371 32.6164 10.7127 39.3185C21.4527 36.8592 33.3332 35.0017 42.0593 34.2238C44.5676 34.0002 46.9763 33.8531 49.3339 33.7819C51.549 33.715 53.719 33.7152 55.8843 33.7819C66.3041 34.103 76.6134 35.9657 91.3072 39.3185C90.8306 32.7115 90.1393 25.585 89.2355 17.5596Z" fill="#925230"/>
<path fill-rule="evenodd" clip-rule="evenodd" d="M89.2355 99H13.5303C9.76004 74.6949 8.91366 58.6291 10.7127 39.3185C21.4527 36.8592 33.3332 35.0017 42.0593 34.2238V58.9515H55.8843V33.7819C66.3041 34.103 76.6134 35.9657 91.3072 39.3185C92.8272 60.3945 92.1614 76.1836 89.2355 99Z" fill="#925230"/>
<path d="M49.3339 33.7819C46.9763 33.8531 44.5676 34.0002 42.0593 34.2238V58.9515H55.8843V33.7819C53.719 33.7152 51.549 33.715 49.3339 33.7819Z" fill="black"/>
<path d="M13.5303 17.5596C41.5496 -0.942175 57.9751 -2.74334 89.2355 17.5596M13.5303 17.5596C12.2802 25.5235 11.3371 32.6164 10.7127 39.3185M13.5303 17.5596C-0.157206 44.8833 -0.276253 62.67 13.5303 99M89.2355 17.5596C90.1393 25.585 90.8306 32.7115 91.3072 39.3185M89.2355 17.5596C100.926 44.1836 104.077 61.8801 89.2355 99M10.7127 39.3185C8.91366 58.6291 9.76004 74.6949 13.5303 99M10.7127 39.3185C21.4527 36.8592 33.3332 35.0017 42.0593 34.2238M13.5303 99H89.2355M91.3072 39.3185C92.8273 60.3945 92.1614 76.1836 89.2355 99M91.3072 39.3185C76.6134 35.9657 66.3041 34.103 55.8843 33.7819M42.0593 34.2238C44.5676 34.0002 46.9763 33.8531 49.3339 33.7819C51.549 33.715 53.719 33.7152 55.8843 33.7819M42.0593 34.2238V58.9515H55.8843V33.7819" stroke="black" stroke-width="5" stroke-linecap="round" stroke-linejoin="round"/>
</svg>
